Coordinates
version=1
nRows=22
nColumns=24
inDegrees=yes

Units are S.I. units (second, meters, Newtons, ...)
Angles are in degrees.

endheader
time	pelvis_tilt	pelvis_list	pelvis_rotation	pelvis_tx	pelvis_ty	pelvis_tz	hip_flexion_r	hip_adduction_r	hip_rotation_r	knee_angle_r	ankle_angle_r	subtalar_angle_r	mtp_angle_r	hip_flexion_l	hip_adduction_l	hip_rotation_l	knee_angle_l	ankle_angle_l	subtalar_angle_l	mtp_angle_l	lumbar_extension	lumbar_bending	lumbar_rotation
      0.64200000	     -4.62192300	     -4.33766287	      4.17295455	     -0.41613209	      0.90152575	      0.32734956	     16.74901951	      9.25890997	     -4.05540533	    -24.14057390	     11.15280549	     -4.43895292	      2.88818932	     17.21294425	     -8.54367113	     -5.01563477	    -72.48174952	     -1.89053243	     -8.87603349	     -0.17688407	     -3.99691390	      5.13949112	     -1.22364757
      0.64616667	     -4.76637784	     -4.20170178	      4.17767916	     -0.41087226	      0.90243599	      0.32743500	     16.25077836	      9.15368013	     -3.96620655	    -23.60876474	     11.20527956	     -4.38189561	      2.88822155	     18.11383449	     -8.29547341	     -5.05681228	    -72.57127955	     -1.54653820	     -9.04147013	     -0.19879519	     -3.84715441	      4.98238293	     -1.11054756
      0.65033333	     -4.99172574	     -4.07285922	      4.16519413	     -0.40572615	      0.90315351	      0.32754765	     15.87633466	      9.05436040	     -3.85527909	    -23.13176243	     11.20984415	     -4.36630852	      2.88613846	     19.11552146	     -8.04095561	     -5.09391257	    -72.62195968	     -1.21258076	     -9.19764987	     -0.26161741	     -3.64707357	      4.82376008	     -0.86017389
      0.65450000	     -5.13885678	     -3.91940803	      4.13808327	     -0.40050185	      0.90401575	      0.32763791	     15.39405379	      8.93236442	     -3.74395742	    -22.62271763	     11.21400564	     -4.30174899	      2.88488975	     19.98035301	     -7.76186532	     -5.16089395	    -72.54786160	     -0.83372092	     -9.33503573	     -0.29681597	     -3.53568862	      4.66106189	     -0.69615401
      0.65866667	     -5.28587676	     -3.75726132	      4.09311893	     -0.39525651	      0.90486429	      0.32774917	     14.90822413	      8.80435231	     -3.61910734	    -22.10852766	     11.21725631	     -4.24832802	      2.88404288	     20.81845479	     -7.47903882	     -5.25516408	    -72.38528404	     -0.47965029	     -9.42888860	     -0.32996204	     -3.41146656	      4.47801040	     -0.49595635
      0.66283333	     -5.42250654	     -3.58914072	      4.02704257	     -0.38999389	      0.90570711	      0.32789650	     14.40702312	      8.67707409	     -3.46677969	    -21.58826922	     11.23503369	     -4.21237036	      2.88453313	     21.61851982	     -7.20111363	     -5.37813982	    -72.13662263	     -0.15935289	     -9.48257805	     -0.38560230	     -3.29571158	      4.28115265	     -0.18725020
      0.66700000	     -5.52141620	     -3.41790440	      3.96283453	     -0.38469171	      0.90659656	      0.32801533	     13.85503535	      8.54051690	     -3.34828688	    -21.04838766	     11.24114245	     -4.11537726	      2.88493961	     22.34949420	     -6.91988993	     -5.50726026	    -71.79840719	      0.17375852	     -9.53650775	     -0.39301659	     -3.21580445	      4.09138131	     -0.09443659
      0.67116667	     -5.61789495	     -3.21820724	      3.86139882	     -0.37944114	      0.90746935	      0.32816234	     13.31818311	      8.37858248	     -3.18094779	    -20.54245035	     11.19148759	     -4.05036774	      2.88573103	     23.04752179	     -6.60983829	     -5.66742894	    -71.37854593	      0.54512247	     -9.54854951	     -0.40784857	     -3.18133822	      3.87041632	      0.17016330
      0.67533333	     -5.69439383	     -3.02832058	      3.75080901	     -0.37414356	      0.90834434	      0.32833676	     12.74715813	      8.22964554	     -3.01523048	    -20.01038824	     11.16911485	     -3.97716643	      2.88854520	     23.69829754	     -6.32613941	     -5.84594804	    -70.87759573	      0.87307583	     -9.53691410	     -0.41747691	     -3.14448486	      3.65622181	      0.42976574
      0.67950000	     -5.74735810	     -2.83288638	      3.63071734	     -0.36884473	      0.90922530	      0.32851752	     12.15124777	      8.07444090	     -2.84687019	    -19.47679896	     11.14335367	     -3.90447981	      2.89341165	     24.29963695	     -6.04325408	     -6.03859594	    -70.30193991	      1.19364315	     -9.50495245	     -0.42187401	     -3.13895157	      3.43665877	      0.70212316
      0.68366667	     -5.77179930	     -2.64484435	      3.49989334	     -0.36352395	      0.91011345	      0.32872259	     11.51590675	      7.93083279	     -2.66660884	    -18.92384362	     11.13908594	     -3.84658216	      2.90488075	     24.84717956	     -5.78339292	     -6.24868148	    -69.65655590	      1.49091548	     -9.44540897	     -0.42198750	     -3.15669877	      3.22055637	      1.05767681
      0.68783333	     -5.79268504	     -2.44887688	      3.35461755	     -0.35822463	      0.91097358	      0.32893483	     10.88705809	      7.77424261	     -2.48742929	    -18.38416716	     11.09231041	     -3.76723895	      2.91858714	     25.36739822	     -5.51640596	     -6.46606125	    -68.93931513	      1.79721691	     -9.37459294	     -0.41338196	     -3.18726847	      3.00310163	      1.33678179
      0.69200000	     -5.81732661	     -2.24229647	      3.19719534	     -0.35293885	      0.91179260	      0.32913550	     10.27524234	      7.59916210	     -2.31824566	    -17.86713038	     11.01388240	     -3.66443086	      2.92682188	     25.86752089	     -5.23688724	     -6.69266054	    -68.14805008	      2.09691553	     -9.30047956	     -0.40148559	     -3.21649716	      2.77893258	      1.52650905
      0.69616667	     -5.78095845	     -2.05704133	      3.03867067	     -0.34762195	      0.91264951	      0.32936958	      9.57708183	      7.45327612	     -2.13241691	    -17.30549184	     10.99214575	     -3.59316423	      2.94758972	     26.28341910	     -5.00229258	     -6.92980673	    -67.30243810	      2.37078787	     -9.19307086	     -0.37829297	     -3.31269279	      2.56622909	      1.88267401
      0.70033333	     -5.75626900	     -1.86509994	      2.86678359	     -0.34233229	      0.91344795	      0.32960652	      8.90674088	      7.29385506	     -1.94622867	    -16.76735692	     10.92811739	     -3.50686723	      2.97052143	     26.69031889	     -4.75871075	     -7.16980396	    -66.38952408	      2.63988925	     -9.08150539	     -0.34975272	     -3.39752709	      2.35399275	      2.17070597
      0.70450000	     -5.74025525	     -1.66565022	      2.68043231	     -0.33706810	      0.91418648	      0.32983832	      8.26323701	      7.11768659	     -1.77324945	    -16.25749087	     10.83372940	     -3.39714792	      2.98559639	     27.08432177	     -4.50852603	     -7.41813925	    -65.41003597	      2.89457127	     -8.96238459	     -0.32710965	     -3.47600683	      2.13567542	      2.37426575
      0.70866667	     -5.69526842	     -1.48120478	      2.50095394	     -0.33178528	      0.91490910	      0.33008062	      7.57618767	      6.95687373	     -1.60572798	    -15.71857007	     10.76637484	     -3.28885389	      3.00312444	     27.43229543	     -4.28532690	     -7.66924248	    -64.38093133	      3.13108357	     -8.83569715	     -0.30279366	     -3.58440841	      1.90719770	      2.61902315
      0.71283333	     -5.60555701	     -1.32418254	      2.32119275	     -0.32650679	      0.91563567	      0.33032014	      6.83526557	      6.82611194	     -1.42243341	    -15.16331074	     10.73289259	     -3.21104658	      3.03905904	     27.71679764	     -4.09248596	     -7.90010500	    -63.30152523	      3.34740943	     -8.69072695	     -0.26135570	     -3.74359617	      1.75096629	      2.99053909
      0.71700000	     -5.54434938	     -1.15976936	      2.13027769	     -0.32125676	      0.91626230	      0.33056295	      6.14423026	      6.67798385	     -1.25590602	    -14.63953545	     10.66336482	     -3.10555189	      3.07540649	     28.01325594	     -3.89405159	     -8.14139414	    -62.16444005	      3.55067843	     -8.54920032	     -0.21917373	     -3.86965554	      1.56593805	      3.26484275
      0.72116667	     -5.47478514	     -1.00334452	      1.93808120	     -0.31601844	      0.91684175	      0.33079806	      5.44906787	      6.53237047	     -1.09874420	    -14.12049925	     10.59509753	     -2.98491741	      3.11501364	     28.28330579	     -3.70417600	     -8.37482568	    -60.97325930	      3.73648479	     -8.40401128	     -0.17538652	     -4.00874104	      1.38975887	      3.52851577
      0.72533333	     -5.40105189	     -0.85769691	      1.74752711	     -0.31078773	      0.91735989	      0.33102038	      4.75501955	      6.39141313	     -0.95839105	    -13.60805638	     10.53319815	     -2.85253872	      3.15634719	     28.53368670	     -3.52601790	     -8.60227323	    -59.73425618	      3.90015967	     -8.25731981	     -0.13213683	     -4.14976659	      1.22796201	      3.77922287
      0.72950000	     -5.32718222	     -0.72584081	      1.55554427	     -0.30557303	      0.91781053	      0.33124057	      4.06424692	      6.26127561	     -0.81742592	    -13.09745284	     10.47391058	     -2.71008002	      3.20610828	     28.76960731	     -3.36110009	     -8.81692054	    -58.44835152	      4.04685513	     -8.11337995	     -0.08374303	     -4.29718599	      1.07938567	      4.04242999
